Coordinates
version=1
nRows=17
nColumns=24
inDegrees=yes

Units are S.I. units (second, meters, Newtons, ...)
Angles are in degrees.

endheader
time	pelvis_tilt	pelvis_list	pelvis_rotation	pelvis_tx	pelvis_ty	pelvis_tz	hip_flexion_r	hip_adduction_r	hip_rotation_r	knee_angle_r	ankle_angle_r	subtalar_angle_r	mtp_angle_r	hip_flexion_l	hip_adduction_l	hip_rotation_l	knee_angle_l	ankle_angle_l	subtalar_angle_l	mtp_angle_l	lumbar_extension	lumbar_bending	lumbar_rotation
      3.38500000	     -5.71021156	      3.68389210	    357.07540253	     -0.16158518	      1.38865765	     -1.07170648	     27.99607009	     -3.33572585	      1.17702714	    -26.85749528	      0.75752255	     -6.76030980	     20.17085145	      4.25030770	      9.12720108	      4.67233683	     -8.77541492	      3.01923066	     -5.31584997	     10.46852560	     -7.22003184	     -0.66649858	      8.04225753
      3.39000000	     -5.69711187	      3.72400353	    357.18721294	     -0.15719570	      1.38814055	     -1.07164646	     27.83570769	     -3.42566108	      1.16680219	    -25.03836689	      0.14066376	     -6.90621241	     19.90110383	      3.94708061	      9.19652181	      4.84708213	     -8.77066873	      3.24193995	     -5.35647029	     10.34618182	     -7.24346162	     -0.72571706	      7.91748607
      3.39500000	     -5.71904518	      3.77184805	    357.32796046	     -0.15280945	      1.38755406	     -1.07161570	     27.69292573	     -3.53560325	      1.15946117	    -23.19911274	     -0.47424152	     -7.01543539	     19.64786788	      3.69650382	      9.27547891	      5.07979801	     -8.79715370	      3.46673456	     -5.39580291	     10.25568017	     -7.23335275	     -0.80052563	      7.81802227
      3.40000000	     -5.72516013	      3.82690086	    357.45595251	     -0.14838571	      1.38695719	     -1.07154685	     27.51412577	     -3.65003007	      1.15364247	    -21.34044523	     -1.11149468	     -7.10829732	     19.40800691	      3.41933533	      9.35924467	      5.27942573	     -8.80953997	      3.69359383	     -5.44109770	     10.14427876	     -7.24285565	     -0.87439703	      7.69397548
      3.40500000	     -5.75422008	      3.88503161	    357.58197261	     -0.14392250	      1.38631975	     -1.07145619	     27.34135135	     -3.76555709	      1.16327834	    -19.46935188	     -1.73856130	     -7.15991891	     19.20009876	      3.16674040	      9.44283879	      5.47898697	     -8.82669405	      3.92927794	     -5.47541287	     10.02469869	     -7.22537228	     -0.95281371	      7.58694101
      3.41000000	     -5.79117188	      3.94713974	    357.71891678	     -0.13944853	      1.38565142	     -1.07137056	     27.16039401	     -3.89178033	      1.16906727	    -17.59281676	     -2.35727909	     -7.17460299	     19.01211036	      2.92841071	      9.53046669	      5.69434890	     -8.85809982	      4.16310392	     -5.51035237	      9.92632825	     -7.20278736	     -1.03610948	      7.48529404
      3.41500000	     -5.81933690	      4.00557529	    357.85679385	     -0.13493384	      1.38497652	     -1.07127353	     26.94607854	     -4.01632999	      1.17990958	    -15.70346161	     -2.96745252	     -7.15809630	     18.85668350	      2.67482436	      9.61270904	      5.90926077	     -8.88622798	      4.39761481	     -5.54396450	      9.82146914	     -7.19406173	     -1.11257548	      7.38188877
      3.42000000	     -5.88524440	      4.07059689	    358.00618129	     -0.13037040	      1.38424354	     -1.07118082	     26.75699995	     -4.15256014	      1.19324751	    -13.82315543	     -3.54797567	     -7.08336164	     18.73085283	      2.46613026	      9.70025886	      6.13836828	     -8.92869542	      4.63104565	     -5.57203872	      9.74192914	     -7.14090816	     -1.19585662	      7.29487180
      3.42500000	     -5.97688740	      4.14724021	    358.14394603	     -0.12569934	      1.38344629	     -1.07105847	     26.58508736	     -4.29569401	      1.17819695	    -11.96439772	     -4.09963685	     -6.93431793	     18.61779933	      2.26592709	      9.79600764	      6.34286935	     -8.94257252	      4.87889985	     -5.62081432	      9.69773305	     -7.03633633	     -1.29488477	      7.23441656
      3.43000000	     -5.95528379	      4.21928852	    358.28649995	     -0.12105928	      1.38275534	     -1.07090296	     26.26210174	     -4.43952215	      1.20871000	    -10.09054513	     -4.69137519	     -6.84064407	     18.60413547	      1.93991500	      9.88702738	      6.55456919	     -8.95632591	      5.08996210	     -5.64267384	      9.52269789	     -7.10194305	     -1.36832125	      7.05091412
      3.43500000	     -5.99537298	      4.31858472	    358.44619301	     -0.11636456	      1.38194021	     -1.07076782	     26.01554231	     -4.61735591	      1.18925002	     -8.28968517	     -5.20768775	     -6.63336399	     18.57182230	      1.68392450	     10.00692778	      6.79585097	     -8.98351884	      5.32710693	     -5.67035472	      9.43089796	     -7.08016700	     -1.48492059	      6.93376901
      3.44000000	     -6.10173244	      4.42589404	    358.60336023	     -0.11158176	      1.38102550	     -1.07061121	     25.84765873	     -4.79536456	      1.15844330	     -6.56570640	     -5.65761723	     -6.36369286	     18.51418003	      1.49522483	     10.13035765	      7.03139642	     -9.00994699	      5.56439158	     -5.70995817	      9.39914833	     -6.96427501	     -1.61565303	      6.86862371
      3.44500000	     -6.11333258	      4.53644525	    358.76930493	     -0.10681942	      1.38019341	     -1.07044240	     25.57575308	     -4.98407056	      1.10030248	     -4.90130936	     -6.07163671	     -6.02980266	     18.53501033	      1.19822207	     10.25833521	      7.28655703	     -9.03176532	      5.76499154	     -5.76461151	      9.25945804	     -6.98974813	     -1.72488470	      6.66571574
      3.45000000	     -6.14844402	      4.65027983	    358.93212437	     -0.10200257	      1.37931041	     -1.07025730	     25.34759055	     -5.16769436	      1.01172270	     -3.34684379	     -6.40260735	     -5.63873158	     18.53687631	      0.92149492	     10.38534460	      7.53685061	     -9.05038825	      5.98503305	     -5.79825871	      9.16599853	     -6.97161967	     -1.85018779	      6.53553220
      3.45500000	     -6.19434740	      4.76349582	    359.09349352	     -0.09715201	      1.37840382	     -1.07004857	     25.15326402	     -5.34151001	      0.88726665	     -1.91446237	     -6.65306224	     -5.19000685	     18.52892088	      0.65348925	     10.50763532	      7.79126232	     -9.06869526	      6.19825943	     -5.83411130	      9.08356585	     -6.94159922	     -1.97133592	      6.40027912
      3.46000000	     -6.23979066	      4.86391749	    359.25825809	     -0.09227403	      1.37750228	     -1.06984068	     24.98026331	     -5.49654988	      0.72834003	     -0.61374693	     -6.82052826	     -4.70383954	     18.51041679	      0.38272405	     10.61364178	      8.05626588	     -9.08859208	      6.41040157	     -5.86229281	      9.01983732	     -6.90969322	     -2.07544728	      6.27333401
      3.46500000	     -6.29364063	      4.96371154	    359.42066909	     -0.08736302	      1.37659906	     -1.06959236	     24.84803624	     -5.63498190	      0.51839993	      0.53784715	     -6.94610537	     -4.26149954	     18.47339861	      0.11486127	     10.71254592	      8.30723322	     -9.09986749	      6.62972815	     -5.88005910	      8.99688274	     -6.85685259	     -2.19834840	      6.19756287
